# WaveFront *.obj file (generated by Autodesk ATF)

mtllib 7958c2ab-6682-4a51-9129-2bcb643d89f2.mtl

g Body1

v -25.000000 2.000000 -10.000000
v -24.620194 2.000000 -5.658796
v -23.492316 2.000000 -1.449496
v -21.650635 2.000000 2.500000
v -19.151111 2.000000 6.069690
v -16.069690 2.000000 9.151111
v -12.500000 2.000000 11.650635
v -8.550504 2.000000 13.492316
v -4.341204 2.000000 14.620194
v 0.000000 2.000000 15.000000
v 4.341204 2.000000 14.620194
v 8.550504 2.000000 13.492316
v 12.500000 2.000000 11.650635
v 16.069690 2.000000 9.151111
v 19.151111 2.000000 6.069690
v 21.650635 2.000000 2.500000
v 23.492316 2.000000 -1.449496
v 24.620194 2.000000 -5.658796
v 25.000000 2.000000 -10.000000
v 24.620194 2.000000 -14.341204
v 23.492316 2.000000 -18.550504
v 21.650635 2.000000 -22.500000
v 19.151111 2.000000 -26.069690
v 16.069690 2.000000 -29.151111
v 12.500000 2.000000 -31.650635
v 8.550504 2.000000 -33.492316
v 4.341204 2.000000 -34.620194
v 0.000000 2.000000 -35.000000
v -4.341204 2.000000 -34.620194
v -8.550504 2.000000 -33.492316
v -12.500000 2.000000 -31.650635
v -16.069690 2.000000 -29.151111
v -19.151111 2.000000 -26.069690
v -21.650635 2.000000 -22.500000
v -23.492316 2.000000 -18.550504
v -24.620194 2.000000 -14.341204
v -25.000000 0.000000 -10.000000
v -24.620194 0.000000 -14.341204
v -23.492316 0.000000 -18.550504
v -21.650635 0.000000 -22.500000
v -19.151111 0.000000 -26.069690
v -16.069690 0.000000 -29.151111
v -12.500000 0.000000 -31.650635
v -8.550504 0.000000 -33.492316
v -4.341204 0.000000 -34.620194
v 0.000000 0.000000 -35.000000
v 4.341204 0.000000 -34.620194
v 8.550504 0.000000 -33.492316
v 12.500000 0.000000 -31.650635
v 16.069690 0.000000 -29.151111
v 19.151111 0.000000 -26.069690
v 21.650635 0.000000 -22.500000
v 23.492316 0.000000 -18.550504
v 24.620194 0.000000 -14.341204
v 25.000000 0.000000 -10.000000
v 24.620194 0.000000 -5.658796
v 23.492316 0.000000 -1.449496
v 21.650635 0.000000 2.500000
v 19.151111 0.000000 6.069690
v 16.069690 0.000000 9.151111
v 12.500000 0.000000 11.650635
v 8.550504 0.000000 13.492316
v 4.341204 0.000000 14.620194
v 0.000000 0.000000 15.000000
v -4.341204 0.000000 14.620194
v -8.550504 0.000000 13.492316
v -12.500000 0.000000 11.650635
v -16.069690 0.000000 9.151111
v -19.151111 0.000000 6.069690
v -21.650635 0.000000 2.500000
v -23.492316 0.000000 -1.449496
v -24.620194 0.000000 -5.658796
v -30.000000 0.000000 -40.000000
v -30.000000 0.000000 40.000000
v -30.000000 2.000000 40.000000
v -30.000000 2.000000 -40.000000
v 30.000000 0.000000 -40.000000
v 30.000000 2.000000 -40.000000
v 30.000000 0.000000 40.000000
v 30.000000 2.000000 40.000000
vt 0.200000 -7.417649 0.000000
vt 0.000000 -7.417649 0.000000
vt 0.200000 -7.853982 0.000000
vt 0.000000 -7.853982 0.000000
vt 0.200000 7.853982 0.000000
vt 0.000000 7.853982 0.000000
vt 0.200000 7.417649 0.000000
vt 0.000000 7.417649 0.000000
vt 0.200000 6.981317 0.000000
vt 0.000000 6.981317 0.000000
vt 0.200000 6.544985 0.000000
vt 0.000000 6.544985 0.000000
vt 0.200000 6.108652 0.000000
vt 0.000000 6.108652 0.000000
vt 0.200000 5.672320 0.000000
vt 0.000000 5.672320 0.000000
vt 0.200000 5.235988 0.000000
vt 0.000000 5.235988 0.000000
vt 0.200000 4.799655 0.000000
vt -0.000000 4.799655 0.000000
vt 0.200000 4.363323 0.000000
vt 0.000000 4.363323 0.000000
vt 0.200000 3.926991 0.000000
vt 0.000000 3.926991 0.000000
vt 0.200000 3.490659 0.000000
vt 0.000000 3.490659 0.000000
vt 0.200000 3.054326 0.000000
vt 0.000000 3.054326 0.000000
vt 0.200000 2.617994 0.000000
vt 0.000000 2.617994 0.000000
vt 0.200000 2.181662 0.000000
vt 0.000000 2.181662 0.000000
vt 0.200000 1.745329 0.000000
vt 0.000000 1.745329 0.000000
vt 0.200000 1.308997 0.000000
vt 0.000000 1.308997 0.000000
vt 0.200000 0.872665 0.000000
vt 0.000000 0.872665 0.000000
vt 0.200000 0.436332 0.000000
vt 0.000000 0.436332 0.000000
vt 0.200000 0.000000 0.000000
vt 0.000000 0.000000 0.000000
vt 0.200000 -0.436332 0.000000
vt 0.000000 -0.436332 0.000000
vt 0.200000 -0.872665 0.000000
vt 0.000000 -0.872665 0.000000
vt 0.200000 -1.308997 0.000000
vt 0.000000 -1.308997 0.000000
vt 0.200000 -1.745329 0.000000
vt 0.000000 -1.745329 0.000000
vt 0.200000 -2.181662 0.000000
vt 0.000000 -2.181662 0.000000
vt 0.200000 -2.617994 0.000000
vt -0.000000 -2.617994 0.000000
vt 0.200000 -3.054326 0.000000
vt 0.000000 -3.054326 0.000000
vt 0.200000 -3.490659 0.000000
vt 0.000000 -3.490659 0.000000
vt 0.200000 -3.926991 0.000000
vt 0.000000 -3.926991 0.000000
vt 0.200000 -4.363323 0.000000
vt 0.000000 -4.363323 0.000000
vt 0.200000 -4.799655 0.000000
vt 0.000000 -4.799655 0.000000
vt 0.200000 -5.235988 0.000000
vt 0.000000 -5.235988 0.000000
vt 0.200000 -5.672320 0.000000
vt 0.000000 -5.672320 0.000000
vt 0.200000 -6.108652 0.000000
vt 0.000000 -6.108652 0.000000
vt 0.200000 -6.544985 0.000000
vt -0.000000 -6.544985 0.000000
vt 0.200000 -6.981317 0.000000
vt 0.000000 -6.981317 0.000000
vt 0.000000 0.000000 0.000000
vt 8.000000 0.000000 0.000000
vt 0.000000 0.200000 0.000000
vt 8.000000 0.200000 0.000000
vt -0.000000 0.000000 0.000000
vt 6.000000 0.000000 0.000000
vt -0.000000 0.200000 0.000000
vt 6.000000 0.200000 0.000000
vt -0.000000 0.000000 0.000000
vt 8.000000 0.000000 0.000000
vt -0.000000 0.200000 0.000000
vt 8.000000 0.200000 0.000000
vt 0.000000 0.000000 0.000000
vt 6.000000 0.000000 0.000000
vt 0.000000 0.200000 0.000000
vt 6.000000 0.200000 0.000000
vt -2.462019 1.434120 0.000000
vt -3.000000 4.000000 0.000000
vt -2.500000 1.000000 0.000000
vt -3.000000 -4.000000 0.000000
vt -2.462019 0.565880 0.000000
vt -2.349232 0.144950 0.000000
vt -2.165064 -0.250000 0.000000
vt -1.915111 -0.606969 0.000000
vt -1.606969 -0.915111 0.000000
vt -1.250000 -1.165064 0.000000
vt -0.855050 -1.349232 0.000000
vt -0.434120 -1.462019 0.000000
vt 0.000000 -1.500000 0.000000
vt 3.000000 -4.000000 0.000000
vt 0.434120 -1.462019 0.000000
vt 0.855050 -1.349232 0.000000
vt 1.250000 -1.165064 0.000000
vt 1.606969 -0.915111 0.000000
vt 1.915111 -0.606969 0.000000
vt 2.165064 -0.250000 0.000000
vt 2.349232 0.144950 0.000000
vt 2.462019 0.565880 0.000000
vt 2.500000 1.000000 0.000000
vt 3.000000 4.000000 0.000000
vt 2.462019 1.434120 0.000000
vt 2.349232 1.855050 0.000000
vt 2.165064 2.250000 0.000000
vt 1.915111 2.606969 0.000000
vt 1.606969 2.915111 0.000000
vt 1.250000 3.165064 0.000000
vt 0.855050 3.349232 0.000000
vt 0.434120 3.462019 0.000000
vt 0.000000 3.500000 0.000000
vt -0.434120 3.462019 0.000000
vt -0.855050 3.349232 0.000000
vt -1.250000 3.165064 0.000000
vt -1.606969 2.915111 0.000000
vt -1.915111 2.606969 0.000000
vt -2.165064 2.250000 0.000000
vt -2.349232 1.855050 0.000000
vt 2.462019 0.565880 0.000000
vt 3.000000 -4.000000 0.000000
vt 2.500000 1.000000 0.000000
vt 3.000000 4.000000 0.000000
vt 2.462019 1.434120 0.000000
vt 2.349232 1.855050 0.000000
vt 2.165064 2.250000 0.000000
vt 1.915111 2.606969 0.000000
vt 1.606969 2.915111 0.000000
vt 1.250000 3.165064 0.000000
vt 0.855050 3.349232 0.000000
vt 0.434120 3.462019 0.000000
vt -0.000000 3.500000 0.000000
vt -3.000000 4.000000 0.000000
vt -0.434120 3.462019 0.000000
vt -0.855050 3.349232 0.000000
vt -1.250000 3.165064 0.000000
vt -1.606969 2.915111 0.000000
vt -1.915111 2.606969 0.000000
vt -2.165064 2.250000 0.000000
vt -2.349232 1.855050 0.000000
vt -2.462019 1.434120 0.000000
vt -2.500000 1.000000 0.000000
vt -3.000000 -4.000000 0.000000
vt -2.462019 0.565880 0.000000
vt -2.349232 0.144950 0.000000
vt -2.165064 -0.250000 0.000000
vt -1.915111 -0.606969 0.000000
vt -1.606969 -0.915111 0.000000
vt -1.250000 -1.165064 0.000000
vt -0.855050 -1.349232 0.000000
vt -0.434120 -1.462019 0.000000
vt -0.000000 -1.500000 0.000000
vt 0.434120 -1.462019 0.000000
vt 0.855050 -1.349232 0.000000
vt 1.250000 -1.165064 0.000000
vt 1.606969 -0.915111 0.000000
vt 1.915111 -0.606969 0.000000
vt 2.165064 -0.250000 0.000000
vt 2.349232 0.144950 0.000000
vn 0.098481 0.000000 -0.017365
vn 0.098481 0.000000 -0.017365
vn 0.100000 0.000000 -0.000000
vn 0.100000 0.000000 -0.000000
vn 0.098481 -0.000000 0.017365
vn 0.098481 -0.000000 0.017365
vn 0.093969 -0.000000 0.034202
vn 0.093969 -0.000000 0.034202
vn 0.086603 -0.000000 0.050000
vn 0.086603 -0.000000 0.050000
vn 0.076604 -0.000000 0.064279
vn 0.076604 -0.000000 0.064279
vn 0.064279 -0.000000 0.076604
vn 0.064279 -0.000000 0.076604
vn 0.050000 -0.000000 0.086603
vn 0.050000 -0.000000 0.086603
vn 0.034202 -0.000000 0.093969
vn 0.034202 -0.000000 0.093969
vn 0.017365 -0.000000 0.098481
vn 0.017365 -0.000000 0.098481
vn -0.000000 0.000000 0.100000
vn -0.000000 0.000000 0.100000
vn -0.017365 0.000000 0.098481
vn -0.017365 0.000000 0.098481
vn -0.034202 0.000000 0.093969
vn -0.034202 0.000000 0.093969
vn -0.050000 0.000000 0.086603
vn -0.050000 0.000000 0.086603
vn -0.064279 0.000000 0.076604
vn -0.064279 0.000000 0.076604
vn -0.076604 0.000000 0.064279
vn -0.076604 0.000000 0.064279
vn -0.086603 0.000000 0.050000
vn -0.086603 0.000000 0.050000
vn -0.093969 0.000000 0.034202
vn -0.093969 0.000000 0.034202
vn -0.098481 0.000000 0.017365
vn -0.098481 0.000000 0.017365
vn -0.100000 0.000000 0.000000
vn -0.100000 0.000000 0.000000
vn -0.098481 0.000000 -0.017365
vn -0.098481 0.000000 -0.017365
vn -0.093969 0.000000 -0.034202
vn -0.093969 0.000000 -0.034202
vn -0.086603 0.000000 -0.050000
vn -0.086603 0.000000 -0.050000
vn -0.076604 0.000000 -0.064279
vn -0.076604 0.000000 -0.064279
vn -0.064279 0.000000 -0.076604
vn -0.064279 0.000000 -0.076604
vn -0.050000 0.000000 -0.086603
vn -0.050000 0.000000 -0.086603
vn -0.034202 0.000000 -0.093969
vn -0.034202 0.000000 -0.093969
vn -0.017365 0.000000 -0.098481
vn -0.017365 0.000000 -0.098481
vn -0.000000 0.000000 -0.100000
vn -0.000000 0.000000 -0.100000
vn 0.017365 0.000000 -0.098481
vn 0.017365 0.000000 -0.098481
vn 0.034202 0.000000 -0.093969
vn 0.034202 0.000000 -0.093969
vn 0.050000 0.000000 -0.086603
vn 0.050000 0.000000 -0.086603
vn 0.064279 0.000000 -0.076604
vn 0.064279 0.000000 -0.076604
vn 0.076604 0.000000 -0.064279
vn 0.076604 0.000000 -0.064279
vn 0.086603 0.000000 -0.050000
vn 0.086603 0.000000 -0.050000
vn 0.093969 0.000000 -0.034202
vn 0.093969 0.000000 -0.034202
vn -0.100000 0.000000 0.000000
vn -0.100000 0.000000 0.000000
vn -0.100000 0.000000 0.000000
vn -0.100000 0.000000 0.000000
vn 0.000000 0.000000 -0.100000
vn 0.000000 0.000000 -0.100000
vn 0.000000 0.000000 -0.100000
vn 0.000000 0.000000 -0.100000
vn 0.100000 0.000000 0.000000
vn 0.100000 0.000000 0.000000
vn 0.100000 0.000000 0.000000
vn 0.100000 0.000000 0.000000
vn 0.000000 -0.000000 0.100000
vn 0.000000 -0.000000 0.100000
vn 0.000000 -0.000000 0.100000
vn 0.000000 -0.000000 0.100000
vn 0.000000 0.100000 0.000000
vn 0.000000 0.100000 0.000000
vn 0.000000 0.100000 0.000000
vn 0.000000 0.100000 0.000000
vn 0.000000 0.100000 0.000000
vn 0.000000 0.100000 0.000000
vn 0.000000 0.100000 0.000000
vn 0.000000 0.100000 0.000000
vn 0.000000 0.100000 0.000000
vn 0.000000 0.100000 0.000000
vn 0.000000 0.100000 0.000000
vn 0.000000 0.100000 0.000000
vn 0.000000 0.100000 0.000000
vn 0.000000 0.100000 0.000000
vn 0.000000 0.100000 0.000000
vn 0.000000 0.100000 0.000000
vn 0.000000 0.100000 0.000000
vn 0.000000 0.100000 0.000000
vn 0.000000 0.100000 0.000000
vn 0.000000 0.100000 0.000000
vn 0.000000 0.100000 0.000000
vn 0.000000 0.100000 0.000000
vn 0.000000 0.100000 0.000000
vn 0.000000 0.100000 0.000000
vn 0.000000 0.100000 0.000000
vn 0.000000 0.100000 0.000000
vn 0.000000 0.100000 0.000000
vn 0.000000 0.100000 0.000000
vn 0.000000 0.100000 0.000000
vn 0.000000 0.100000 0.000000
vn 0.000000 0.100000 0.000000
vn 0.000000 0.100000 0.000000
vn 0.000000 0.100000 0.000000
vn 0.000000 0.100000 0.000000
vn 0.000000 0.100000 0.000000
vn 0.000000 0.100000 0.000000
vn 0.000000 0.100000 0.000000
vn 0.000000 0.100000 0.000000
vn 0.000000 0.100000 0.000000
vn 0.000000 0.100000 0.000000
vn 0.000000 -0.100000 0.000000
vn 0.000000 -0.100000 0.000000
vn 0.000000 -0.100000 0.000000
vn 0.000000 -0.100000 0.000000
vn 0.000000 -0.100000 0.000000
vn 0.000000 -0.100000 0.000000
vn 0.000000 -0.100000 0.000000
vn 0.000000 -0.100000 0.000000
vn 0.000000 -0.100000 0.000000
vn 0.000000 -0.100000 0.000000
vn 0.000000 -0.100000 0.000000
vn 0.000000 -0.100000 0.000000
vn 0.000000 -0.100000 0.000000
vn 0.000000 -0.100000 0.000000
vn 0.000000 -0.100000 0.000000
vn 0.000000 -0.100000 0.000000
vn 0.000000 -0.100000 0.000000
vn 0.000000 -0.100000 0.000000
vn 0.000000 -0.100000 0.000000
vn 0.000000 -0.100000 0.000000
vn 0.000000 -0.100000 0.000000
vn 0.000000 -0.100000 0.000000
vn 0.000000 -0.100000 0.000000
vn 0.000000 -0.100000 0.000000
vn 0.000000 -0.100000 0.000000
vn 0.000000 -0.100000 0.000000
vn 0.000000 -0.100000 0.000000
vn 0.000000 -0.100000 0.000000
vn 0.000000 -0.100000 0.000000
vn 0.000000 -0.100000 0.000000
vn 0.000000 -0.100000 0.000000
vn 0.000000 -0.100000 0.000000
vn 0.000000 -0.100000 0.000000
vn 0.000000 -0.100000 0.000000
vn 0.000000 -0.100000 0.000000
vn 0.000000 -0.100000 0.000000
vn 0.000000 -0.100000 0.000000
vn 0.000000 -0.100000 0.000000
vn 0.000000 -0.100000 0.000000
vn 0.000000 -0.100000 0.000000
usemtl Steel_-_Satin
f 2/1/1 72/2/2 1/3/3
f 1/3/3 72/2/2 37/4/4
f 1/5/3 37/6/4 36/7/5
f 36/7/5 37/6/4 38/8/6
f 36/7/5 38/8/6 35/9/7
f 35/9/7 38/8/6 39/10/8
f 35/9/7 39/10/8 34/11/9
f 34/11/9 39/10/8 40/12/10
f 34/11/9 40/12/10 33/13/11
f 33/13/11 40/12/10 41/14/12
f 33/13/11 41/14/12 32/15/13
f 32/15/13 41/14/12 42/16/14
f 32/15/13 42/16/14 31/17/15
f 31/17/15 42/16/14 43/18/16
f 31/17/15 43/18/16 30/19/17
f 30/19/17 43/18/16 44/20/18
f 30/19/17 44/20/18 29/21/19
f 29/21/19 44/20/18 45/22/20
f 29/21/19 45/22/20 28/23/21
f 28/23/21 45/22/20 46/24/22
f 28/23/21 46/24/22 27/25/23
f 27/25/23 46/24/22 47/26/24
f 27/25/23 47/26/24 26/27/25
f 26/27/25 47/26/24 48/28/26
f 26/27/25 48/28/26 25/29/27
f 25/29/27 48/28/26 49/30/28
f 25/29/27 49/30/28 24/31/29
f 24/31/29 49/30/28 50/32/30
f 24/31/29 50/32/30 23/33/31
f 23/33/31 50/32/30 51/34/32
f 23/33/31 51/34/32 22/35/33
f 22/35/33 51/34/32 52/36/34
f 22/35/33 52/36/34 21/37/35
f 21/37/35 52/36/34 53/38/36
f 21/37/35 53/38/36 20/39/37
f 20/39/37 53/38/36 54/40/38
f 20/39/37 54/40/38 19/41/39
f 19/41/39 54/40/38 55/42/40
f 19/41/39 55/42/40 18/43/41
f 18/43/41 55/42/40 56/44/42
f 18/43/41 56/44/42 17/45/43
f 17/45/43 56/44/42 57/46/44
f 17/45/43 57/46/44 16/47/45
f 16/47/45 57/46/44 58/48/46
f 16/47/45 58/48/46 15/49/47
f 15/49/47 58/48/46 59/50/48
f 15/49/47 59/50/48 14/51/49
f 14/51/49 59/50/48 60/52/50
f 14/51/49 60/52/50 13/53/51
f 13/53/51 60/52/50 61/54/52
f 13/53/51 61/54/52 12/55/53
f 12/55/53 61/54/52 62/56/54
f 12/55/53 62/56/54 11/57/55
f 11/57/55 62/56/54 63/58/56
f 11/57/55 63/58/56 10/59/57
f 10/59/57 63/58/56 64/60/58
f 10/59/57 64/60/58 9/61/59
f 9/61/59 64/60/58 65/62/60
f 9/61/59 65/62/60 8/63/61
f 8/63/61 65/62/60 66/64/62
f 8/63/61 66/64/62 7/65/63
f 7/65/63 66/64/62 67/66/64
f 7/65/63 67/66/64 6/67/65
f 6/67/65 67/66/64 68/68/66
f 6/67/65 68/68/66 5/69/67
f 5/69/67 68/68/66 69/70/68
f 5/69/67 69/70/68 4/71/69
f 4/71/69 69/70/68 70/72/70
f 4/71/69 70/72/70 3/73/71
f 3/73/71 70/72/70 71/74/72
f 3/73/71 71/74/72 2/1/1
f 2/1/1 71/74/72 72/2/2
f 73/75/73 74/76/74 76/77/75
f 76/77/75 74/76/74 75/78/76
f 77/79/77 73/80/78 78/81/79
f 78/81/79 73/80/78 76/82/80
f 79/83/81 77/84/82 80/85/83
f 80/85/83 77/84/82 78/86/84
f 74/87/85 79/88/86 75/89/87
f 75/89/87 79/88/86 80/90/88
f 36/91/89 76/92/90 1/93/91
f 1/93/91 76/92/90 75/94/92
f 1/93/91 75/94/92 2/95/93
f 2/95/93 75/94/92 3/96/94
f 3/96/94 75/94/92 4/97/95
f 4/97/95 75/94/92 5/98/96
f 5/98/96 75/94/92 6/99/97
f 6/99/97 75/94/92 7/100/98
f 7/100/98 75/94/92 8/101/99
f 8/101/99 75/94/92 9/102/100
f 9/102/100 75/94/92 10/103/101
f 10/103/101 75/94/92 80/104/102
f 10/103/101 80/104/102 11/105/103
f 11/105/103 80/104/102 12/106/104
f 12/106/104 80/104/102 13/107/105
f 13/107/105 80/104/102 14/108/106
f 14/108/106 80/104/102 15/109/107
f 15/109/107 80/104/102 16/110/108
f 16/110/108 80/104/102 17/111/109
f 17/111/109 80/104/102 18/112/110
f 18/112/110 80/104/102 19/113/111
f 19/113/111 80/104/102 78/114/112
f 19/113/111 78/114/112 20/115/113
f 20/115/113 78/114/112 21/116/114
f 21/116/114 78/114/112 22/117/115
f 22/117/115 78/114/112 23/118/116
f 23/118/116 78/114/112 24/119/117
f 24/119/117 78/114/112 25/120/118
f 25/120/118 78/114/112 26/121/119
f 26/121/119 78/114/112 27/122/120
f 27/122/120 78/114/112 28/123/121
f 28/123/121 78/114/112 76/92/90
f 28/123/121 76/92/90 29/124/122
f 29/124/122 76/92/90 30/125/123
f 30/125/123 76/92/90 31/126/124
f 31/126/124 76/92/90 32/127/125
f 32/127/125 76/92/90 33/128/126
f 33/128/126 76/92/90 34/129/127
f 34/129/127 76/92/90 35/130/128
f 35/130/128 76/92/90 36/91/89
f 72/131/129 74/132/130 37/133/131
f 37/133/131 74/132/130 73/134/132
f 37/133/131 73/134/132 38/135/133
f 38/135/133 73/134/132 39/136/134
f 39/136/134 73/134/132 40/137/135
f 40/137/135 73/134/132 41/138/136
f 41/138/136 73/134/132 42/139/137
f 42/139/137 73/134/132 43/140/138
f 43/140/138 73/134/132 44/141/139
f 44/141/139 73/134/132 45/142/140
f 45/142/140 73/134/132 46/143/141
f 46/143/141 73/134/132 77/144/142
f 46/143/141 77/144/142 47/145/143
f 47/145/143 77/144/142 48/146/144
f 48/146/144 77/144/142 49/147/145
f 49/147/145 77/144/142 50/148/146
f 50/148/146 77/144/142 51/149/147
f 51/149/147 77/144/142 52/150/148
f 52/150/148 77/144/142 53/151/149
f 53/151/149 77/144/142 54/152/150
f 54/152/150 77/144/142 55/153/151
f 55/153/151 77/144/142 79/154/152
f 55/153/151 79/154/152 56/155/153
f 56/155/153 79/154/152 57/156/154
f 57/156/154 79/154/152 58/157/155
f 58/157/155 79/154/152 59/158/156
f 59/158/156 79/154/152 60/159/157
f 60/159/157 79/154/152 61/160/158
f 61/160/158 79/154/152 62/161/159
f 62/161/159 79/154/152 63/162/160
f 63/162/160 79/154/152 64/163/161
f 64/163/161 79/154/152 74/132/130
f 64/163/161 74/132/130 65/164/162
f 65/164/162 74/132/130 66/165/163
f 66/165/163 74/132/130 67/166/164
f 67/166/164 74/132/130 68/167/165
f 68/167/165 74/132/130 69/168/166
f 69/168/166 74/132/130 70/169/167
f 70/169/167 74/132/130 71/170/168
f 71/170/168 74/132/130 72/131/129
# 80 vertices
# 170 texture params
# 168 normals
# 160 facets

# 1 groups
